<svg xmlns="http://www.w3.org/2000/svg" xmlns:xlink="http://www.w3.org/1999/xlink" width="20" height="20" version="1.1" viewBox="0 0 20 20"><title>编组 13</title><g id="页面-1" fill="none" fill-rule="evenodd" stroke="none" stroke-width="1"><g id="首页备份-3" transform="translate(-982.000000, -978.000000)"><g id="编组-15" transform="translate(854.000000, 978.000000)"><g id="编组-13" transform="translate(128.000000, 0.000000)"><g id="youxiang-2" fill="#FFF" fill-rule="nonzero" transform="translate(2.700000, 4.160000)"><path id="形状" d="M6.99645408,6.02436224 L13.5105867,0.333341837 C13.2982908,0.134081633 13.0189541,0.0204846939 12.7284439,0.0130357143 L1.26446429,0.0130357143 C0.973954082,0.0204846939 0.696479592,0.130357143 0.482321429,0.325892857 L6.99645408,6.02436224 Z M7.4080102,7.41545918 C7.17194921,7.61285074 6.82840794,7.61285074 6.59234694,7.41545918 L0.0037244898,1.6592602 L0.0037244898,9.38385204 C-0.00931122449,10.1008163 0.55494898,10.6948724 1.27191327,10.7172194 L12.7358929,10.7172194 C13.4528571,10.6967347 14.0208418,10.1008163 14.0040816,9.38385204 L14.0040816,1.6592602 L7.4080102,7.41545918 Z"/></g><rect id="矩形备份-2" width="20" height="20" x="0" y="0"/></g></g></g></g></svg>