<svg xmlns="http://www.w3.org/2000/svg" xmlns:xlink="http://www.w3.org/1999/xlink" id="Layer_1" x="0" y="0" version="1.1" viewBox="0 0 1920 1200" style="enable-background:new 0 0 1920 1200" xml:space="preserve"><style type="text/css">.st0{fill:#122236}.st1{opacity:.25;fill:#fff}.st2{opacity:.5}.st2,.st3{fill:#fff}</style><g><path d="M1085.78,750.89H834.22c-13.87,0-25.11-11.24-25.11-25.11V474.22c0-13.87,11.24-25.11,25.11-25.11h251.56 c13.87,0,25.11,11.24,25.11,25.11v251.56C1110.89,739.65,1099.65,750.89,1085.78,750.89z" class="st0"/><path d="M1009.79,620.88L1009.79,620.88l-43.57-43.57c-2.52-2.52-5.83-3.77-9.13-3.75c-3.3-0.02-6.61,1.23-9.13,3.75 l-45.16,45.16c0,0,0,0,0,0L886.24,639l30,30l0,0l18.35,18.35l22.49-22.49l22.49,22.49l0.48-0.48l47.87-47.87L1009.79,620.88z" class="st1"/><path d="M1009.79,559.98L1009.79,559.98l-43.57-43.57c-2.52-2.52-5.83-3.77-9.13-3.75c-3.3-0.02-6.61,1.23-9.13,3.75 l-45.16,45.16c0,0,0,0,0,0l-16.54,16.54l30,30l0,0l18.35,18.35l22.49-22.49l22.49,22.49l0.48-0.48l47.87-47.87L1009.79,559.98z" class="st2"/><path d="M1009.79,590.01L1009.79,590.01l-43.57-43.57c-2.52-2.52-5.83-3.77-9.13-3.75c-3.3-0.02-6.61,1.23-9.13,3.75 l-45.16,45.16c0,0,0,0,0,0l-16.54,16.54l30,30l0,0l18.35,18.35l22.49-22.49l22.49,22.49l0.48-0.48l47.87-47.87L1009.79,590.01z M948.84,605.53l-14.48,14.47l-11.87-11.87l34.58-34.58l34.58,34.58l-12.09,12.09l-14.69-14.69 C960.45,601.1,953.27,601.1,948.84,605.53z" class="st3"/><path d="M934.37,620.01l14.48-14.47c4.43-4.43,11.61-4.43,16.03,0l14.69,14.69l12.09-12.09l-34.58-34.58l-34.58,34.58 L934.37,620.01z" class="st0"/></g></svg>