<svg xmlns="http://www.w3.org/2000/svg" xmlns:xlink="http://www.w3.org/1999/xlink" width="537" height="501" version="1.1" viewBox="0 0 537 501"><title>编组 3备份</title><g id="页面-1" fill="none" fill-rule="evenodd" stroke="none" stroke-width="1" opacity=".06"><g id="编组-3备份"><g id="logo-mobile备份" transform="translate(0.000000, 49.414824)"><polygon id="Fill-1" fill="#282BDB" points="332.868 285.3 365.671 304.24 371.876 307.819 371.876 230.161 332.868 207.645"/><polygon id="Fill-1备份" fill="#282BDB" points="283.485 440.312 298.795 448.87 301.691 450.487 301.691 415.395 283.485 405.221"/><polygon id="Fill-3" fill="#3581E6" points="469.726 92.192 469.726 184.176 390.08 230.167 390.08 307.819 536.979 222.993 536.979 53.378"/><polygon id="Fill-3备份-2" fill="#3581E6" points="345.45 353.05 345.45 394.616 309.493 415.398 309.493 450.487 375.813 412.156 375.813 335.511"/><polygon id="Fill-3备份" fill="#3581E6" points="226.553 139.656 226.553 231.64 146.907 277.631 146.907 355.283 293.807 270.457 293.807 100.842"/><polygon id="Fill-4" fill="#3EC7EB" points="146.907 -.001 .005 84.826 67.259 123.642 146.907 77.649 226.553 123.642 293.807 84.826"/></g><g id="logo-mobile备份-2" fill="#3EC7EB" transform="translate(240.572172, 0.000000)"><polygon id="Fill-4" points="146.907 -.001 .005 84.826 67.259 123.642 146.907 77.649 226.553 123.642 293.807 84.826"/></g><g id="logo-mobile备份-3" fill="#3EC7EB" transform="translate(241.872562, 338.475824)"><polygon id="Fill-4" points="66.303 0 .002 38.331 30.356 55.871 66.303 35.088 102.25 55.871 132.603 38.331"/></g></g></g></svg>