<svg xmlns="http://www.w3.org/2000/svg" xmlns:xlink="http://www.w3.org/1999/xlink" width="32" height="32" version="1.1" viewBox="0 0 32 32"><title>wing-eth</title><g id="Page-1" fill="none" fill-rule="evenodd" stroke="none" stroke-width="1"><g id="画板" transform="translate(-141.000000, -393.000000)"><g id="wing-eth" transform="translate(141.000000, 393.000000)"><circle id="椭圆形" cx="16" cy="16" r="16" fill="#FFF"/><path id="Shape" fill="#000" fill-rule="nonzero" d="M18.8846477,14.7005034 L17.2881711,17.4689597 L15.6912752,20.2374161 L14.0927013,23 L12.4958054,20.2336409 L14.0922819,17.4651846 L15.6908557,14.6988255 L13.2659396,10.5 L16.4588926,10.5 L17.2881711,11.9337248 L18.8846477,14.7005034 Z M10.0704698,10.5 L6.875,10.5 L10.8972315,17.4668624 L12.4958054,14.7005034 L10.0704698,10.5 Z M23.6405201,11.9337248 L22.8116611,10.5 L19.6182886,10.5 L22.0440436,14.7005034 L20.4450503,17.4689597 L18.8485738,20.2374161 L20.4450503,23 L22.0440436,20.2336409 L23.6405201,17.4651846 L25.2369966,14.6988255 L23.6405201,11.9337248 Z"/></g></g></g></svg>